# xmcd CD database file
#
# Track frame offsets:
#	150
#	12092
#	26342
#	40139
#	60392
#	71998
#	82489
#	93446
#	103517
#	122960
#	133125
#	148552
#	165412
#	174949
#	189016
#
# Disc length: 2722 seconds
#
# Revision: 0
# Processed by: cddbd v1.5.2PL0 Copyright (c) Steve Scherf et al.
# Submitted via: CDex 1.51
#
DISCID=c40aa00f
DTITLE=Gal Holiday and the Honky Tonl Revue - Gal Holiday and the Honky Tonk Revue
DYEAR=2006
DGENRE=Country
TTITLE0=Blue Ridge Baby
TTITLE1=Give Up Honky Tonkin' 
TTITLE2=Hello Baby
TTITLE3=The Bottle And The Booze
TTITLE4=The Rockin' Lady
TTITLE5=Boppin' Wig Wam Willie
TTITLE6=Down, Down, Down
TTITLE7=Fist City
TTITLE8=What Else Does She Do Like Me
TTITLE9=Little Pink Mack
TTITLE10=In Trouble Again
TTITLE11=Ramblin' Gal
TTITLE12=Elvis, Elvis
TTITLE13=Same Old New Orleans Blues
TTITLE14=Across The Alley From The Alamo
EXTD=YEAR: 2006
EXTT0=
EXTT1=
EXTT2=
EXTT3=
EXTT4=
EXTT5=
EXTT6=
EXTT7=
EXTT8=
EXTT9=
EXTT10=
EXTT11=
EXTT12=
EXTT13=
EXTT14=
PLAYORDER=
